<svg xmlns="http://www.w3.org/2000/svg" version="1.1" xmlns:xlink="http://www.w3.org/1999/xlink" width="1000" height="1000"><style>
    #light-icon {
      display: inline;
    }
    #dark-icon {
      display: none;
    }

    @media (prefers-color-scheme: dark) {
      #light-icon {
        display: none;
      }
      #dark-icon {
        display: inline;
      }
    }
  </style><g id="light-icon"><svg xmlns="http://www.w3.org/2000/svg" version="1.1" xmlns:xlink="http://www.w3.org/1999/xlink" width="1000" height="1000"><g><g transform="matrix(1,0,0,1,0,0)"><svg xmlns="http://www.w3.org/2000/svg" width="1000" height="1000" viewBox="0 0 1000 1000" fill="none"><rect width="1000" height="1000" rx="156" fill="#0C41F4"></rect><path d="M475.35 408.412C513.476 403.449 523.425 443.678 486.767 452.448C445.995 458.385 431.713 416.163 475.35 408.412Z" fill="white"></path><path d="M230.806 145.206C267.806 145.604 289.256 167.227 296.373 202.338C361.018 167.48 428.657 170.047 493.088 203.238C502.761 185.885 517.102 156.252 534.106 148.957C575.46 131.197 597.776 186.904 581.972 218.613C573.441 235.729 564.734 241.842 548.754 248.484C551.608 252.19 554.403 255.946 557.11 259.755C591.923 308.648 602.283 359.712 592.391 418.72C722.131 446.686 852.134 600.896 829.394 738.041C821.228 798.989 788.757 856.543 719.292 853.206C694.123 852.679 669.319 854.743 644.208 851.802C596.313 846.183 572.445 800.745 580.523 756.275C586.186 725.164 608.122 705.862 633.365 689.165C644.72 683.004 676.621 670.142 670.621 654.747C659.617 645.294 644.135 648.324 630.804 647.958C563.051 646.1 549.208 648.982 549.661 722.193L550.173 786.273C550.51 819.051 557.597 853.26 509.96 853.162C495.74 853.133 482.763 853.162 469.821 853.133C394.52 853.162 405.713 833.978 405.701 773.689L405.798 675.264C484.557 652.597 519.195 587.273 543.852 514.047C515.785 543.548 483.679 564.342 443.75 574.205C391.189 587.361 335.555 579.151 289.033 551.377C242.914 523.617 209.733 478.647 196.815 426.391C183.668 372.573 193.668 318.635 222.222 271.599C212.274 268.679 204.99 266.5 196.342 260.43C182.181 250.663 172.6 235.563 169.793 218.593C166.982 201.112 171.575 183.25 182.471 169.296C195.473 152.667 210.89 147.264 230.806 145.206ZM505.746 397.015C539.491 380.211 522.56 338.132 496.044 346.894C487.522 349.71 481.206 354.867 477.834 365.687C477.242 367.655 476.712 369.644 476.246 371.648C461.136 359.304 444.165 349.393 429.297 368.856C405.695 399.753 419.517 441.272 381.814 462.769C396.528 477.064 405.773 482.097 425.087 489.061C482.845 500.277 565.231 451.968 505.746 397.015ZM387.467 354.654C381.403 348.09 372.267 345.308 363.574 347.379C350.45 350.505 342.254 363.571 345.15 376.745C348.046 389.921 360.967 398.345 374.192 395.677C382.953 393.911 390.079 387.553 392.83 379.05C395.583 370.547 393.531 361.22 387.467 354.654Z" fill="white"></path><path d="M232.439 572.61C237.739 576.634 253.957 596.696 260.57 603.296C291.755 634.524 329.096 658.918 370.217 674.927L370.419 770.835C370.454 792.551 374.093 826.778 361.798 844.397C345.207 855.915 309.304 853.206 284.417 853.206C258.261 853.206 232.455 851.655 232.617 819.491C233.03 737.807 229.954 654.279 232.439 572.61Z" fill="white"></path></svg></g></g></svg></g><g id="dark-icon"><svg xmlns="http://www.w3.org/2000/svg" version="1.1" xmlns:xlink="http://www.w3.org/1999/xlink" width="1000" height="1000"><g><g transform="matrix(1.221001221001221,0,0,1.221001221001221,31.74603174603169,-5.684341886080802e-14)"><svg xmlns="http://www.w3.org/2000/svg" width="767" height="819" viewBox="0 0 767 819" fill="none"><path d="M354.123 304.237C398.193 298.5 409.693 345 367.32 355.138C320.193 362 303.684 313.196 354.123 304.237Z" fill="white"></path><path d="M71.4576 0C114.226 0.460078 139.019 25.4532 147.247 66.0381C221.969 25.7457 300.152 28.7123 374.627 67.0781C385.808 47.0191 402.384 12.767 422.039 4.33496C469.839 -16.1943 495.635 48.1982 477.367 84.8506C467.506 104.634 457.441 111.701 438.97 119.379C442.269 123.662 445.499 128.003 448.628 132.406C488.868 188.921 500.844 247.945 489.41 316.151C639.375 348.477 789.644 526.727 763.359 685.251C753.921 755.7 716.387 822.226 636.093 818.369C607 817.76 578.331 820.145 549.305 816.745C493.944 810.25 466.355 757.731 475.692 706.327C482.238 670.367 507.593 648.055 536.771 628.756C549.897 621.635 586.77 606.767 579.836 588.973C567.116 578.046 549.22 581.548 533.811 581.125C455.496 578.977 439.495 582.309 440.019 666.933L440.611 741.002C441 778.891 449.193 818.432 394.129 818.318C377.693 818.284 362.693 818.319 347.733 818.285C260.693 818.319 273.631 796.143 273.618 726.455L273.73 612.688C364.766 586.487 404.803 510.98 433.304 426.339C400.862 460.439 363.751 484.474 317.598 495.875C256.843 511.081 192.536 501.592 138.761 469.488C85.4532 437.401 47.1008 385.421 32.1685 325.019C16.9724 262.812 28.5302 200.463 61.5357 146.095C50.0371 142.72 41.6182 140.202 31.6216 133.186C15.2536 121.897 4.1784 104.443 0.934139 84.8271C-2.31516 64.6209 2.99379 43.9745 15.5884 27.8447C30.6171 8.62296 48.4368 2.3782 71.4576 0ZM389.258 291.062C428.263 271.639 408.693 223.001 378.044 233.128C368.193 236.383 360.893 242.345 356.996 254.852C356.311 257.126 355.699 259.425 355.161 261.74C337.695 247.473 318.076 236.017 300.891 258.514C273.61 294.227 289.587 342.219 246.006 367.066C263.014 383.59 273.699 389.407 296.025 397.457C362.787 410.422 458.016 354.582 389.258 291.062ZM252.541 242.1C245.531 234.512 234.971 231.296 224.922 233.689C209.753 237.302 200.279 252.406 203.627 267.634C206.974 282.864 221.91 292.6 237.196 289.517C247.323 287.475 255.56 280.127 258.74 270.298C261.921 260.469 259.55 249.689 252.541 242.1Z" fill="white"></path><path d="M73.3452 494.031C79.4717 498.683 98.2182 521.872 105.862 529.501C141.909 565.597 185.07 593.793 232.602 612.298L232.835 723.157C232.876 748.258 237.082 787.821 222.871 808.187C203.693 821.5 162.193 818.369 133.426 818.369C103.193 818.369 73.3638 816.576 73.5516 779.398C74.0285 684.98 70.4731 588.432 73.3452 494.031Z" fill="white"></path></svg></g></g></svg></g></svg>