<svg xmlns="http://www.w3.org/2000/svg" version="1.1" xmlns:xlink="http://www.w3.org/1999/xlink" width="1000" height="1000"><svg width="1000" height="1000" viewBox="0 0 1000 1000" fill="none" xmlns="http://www.w3.org/2000/svg">
<g clip-path="url(#clip0_0_3)">
<rect width="1000" height="1000" rx="167" fill="black"></rect>
<g clip-path="url(#clip1_0_3)">
<path d="M375 125C397.101 125 418.298 133.78 433.926 149.408C449.554 165.036 458.333 186.232 458.333 208.333V375C458.333 397.101 449.554 418.298 433.926 433.926C418.298 449.554 397.101 458.333 375 458.333H208.333C186.232 458.333 165.036 449.554 149.408 433.926C133.78 418.298 125 397.101 125 375V208.333C125 186.232 133.78 165.036 149.408 149.408C165.036 133.78 186.232 125 208.333 125H375Z" fill="white"></path>
<path d="M791.667 125C813.768 125 834.964 133.78 850.592 149.408C866.22 165.036 875 186.232 875 208.333V375C875 397.101 866.22 418.298 850.592 433.926C834.964 449.554 813.768 458.333 791.667 458.333H625C602.899 458.333 581.703 449.554 566.074 433.926C550.446 418.298 541.667 397.101 541.667 375V208.333C541.667 186.232 550.446 165.036 566.074 149.408C581.703 133.78 602.899 125 625 125H791.667Z" fill="white"></path>
<path d="M375 541.667C397.101 541.667 418.298 550.446 433.926 566.074C449.554 581.703 458.333 602.899 458.333 625V791.667C458.333 813.768 449.554 834.964 433.926 850.592C418.298 866.22 397.101 875 375 875H208.333C186.232 875 165.036 866.22 149.408 850.592C133.78 834.964 125 813.768 125 791.667V625C125 602.899 133.78 581.703 149.408 566.074C165.036 550.446 186.232 541.667 208.333 541.667H375Z" fill="white"></path>
<path d="M791.667 541.667C813.768 541.667 834.964 550.446 850.592 566.074C866.22 581.703 875 602.899 875 625V791.667C875 813.768 866.22 834.964 850.592 850.592C834.964 866.22 813.768 875 791.667 875H625C602.899 875 581.703 866.22 566.074 850.592C550.446 834.964 541.667 813.768 541.667 791.667V625C541.667 602.899 550.446 581.703 566.074 566.074C581.703 550.446 602.899 541.667 625 541.667H791.667Z" fill="white"></path>
</g>
</g>
<defs>
<clipPath id="SvgjsClipPath1036">
<rect width="1000" height="1000" rx="167" fill="white"></rect>
</clipPath>
<clipPath id="SvgjsClipPath1035">
<rect width="1000" height="1000" fill="white"></rect>
</clipPath>
</defs>
</svg><style>@media (prefers-color-scheme: light) { :root { filter: none; } }
@media (prefers-color-scheme: dark) { :root { filter: none; } }
</style></svg>