<svg xmlns="http://www.w3.org/2000/svg" width="1000" height="1000" viewBox="0 0 1000 1000" fill="none"><rect width="1000" height="1000" fill="#3E521D"></rect><path d="M473.245 219.816C584.045 213.886 756.281 239.819 844.917 312.715C880.846 342.269 895.735 370.602 900 415.929C869.707 415.595 839.059 415.882 808.73 415.949C805.151 387.914 766.33 365.348 742.544 355.396C601.872 296.55 425.012 296.356 281.397 345.195C252.404 355.054 208.11 376.532 193.753 404.571C177.874 439.992 244.372 470.625 269.61 481.266C336.406 512.574 441.936 520.358 514.589 520.922L579.59 611.745C536.927 611.745 485.446 612.922 442.98 609.808C341.767 601.362 230.287 580.547 149.795 514.498C92.4149 467.415 81.2242 386.396 134.152 332.044C216.393 247.592 361.396 224.696 473.245 219.816Z" fill="white"></path><path d="M419.711 389.326C454.972 389.302 497.109 388.265 531.976 389.788C628.366 393.999 740.495 413.934 823.124 466.678C856.44 488.194 889.548 521.925 896.799 562.342C920.231 692.957 743.643 750.956 645.898 768.183C498.93 794.09 294.836 784.565 168.503 698.614C160.018 692.566 151.917 686.003 144.244 678.951C115.801 652.308 101.304 623.707 100 584.907L190.02 584.931C210.217 659.471 395.077 687.46 459.887 689.394C566.462 692.578 702.61 683.04 790.396 615.565C840.051 577.389 771.153 536.324 738.719 523.492C658.564 489.063 571.235 479.733 484.562 479.99L419.711 389.326Z" fill="white"></path></svg>