<svg width="640" height="420" viewBox="0 0 640 420" fill="none" xmlns="http://www.w3.org/2000/svg">
  <defs>
    <linearGradient id="sky" x1="0" y1="0" x2="0" y2="1">
      <stop offset="0%" stop-color="#CDE9FF" />
      <stop offset="100%" stop-color="#EAF5FF" />
    </linearGradient>
    <linearGradient id="sea" x1="0" y1="0" x2="1" y2="1">
      <stop offset="0%" stop-color="#8EC5FF" />
      <stop offset="100%" stop-color="#B8E0FF" />
    </linearGradient>
    <linearGradient id="mountain" x1="0" y1="0" x2="1" y2="1">
      <stop offset="0%" stop-color="#6A8FBF" />
      <stop offset="100%" stop-color="#9CB3D9" />
    </linearGradient>
  </defs>
  <rect width="640" height="420" fill="url(#sky)" />
  <circle cx="520" cy="90" r="42" fill="#FFE3A3" />
  <path d="M0 300 L140 190 L260 300 Z" fill="url(#mountain)" />
  <path d="M180 300 L330 170 L490 300 Z" fill="#7B9CCF" />
  <path d="M360 300 L520 200 L640 300 Z" fill="#6E8CB8" />
  <rect y="300" width="640" height="120" fill="url(#sea)" />
  <path d="M0 340 C80 330, 160 350, 240 340 C320 330, 400 350, 480 340 C560 330, 600 340, 640 330" stroke="#DFF1FF" stroke-width="6" fill="none" stroke-linecap="round" />
  <path d="M0 370 C90 360, 180 380, 270 370 C360 360, 450 380, 540 370 C600 360, 620 370, 640 360" stroke="#D2ECFF" stroke-width="4" fill="none" stroke-linecap="round" />
</svg>
